<svg xmlns="http://www.w3.org/2000/svg" viewBox="0 0 291 47" fill="none">
  <path fill="#000" d="M45.322 1.875c-2.3 0-4.076.573-5.324 1.727-1.255 1.148-1.876 3.217-1.876 6.201v35.725h-1.11L8.44 6.097l.064 33.358c0 1.36.184 2.398.551 3.101.368.703.995 1.193 1.876 1.47.881.277 2.168.412 3.848.412v1.09H.802v-1.09c2.218 0 3.828-.341 4.836-1.025 1.008-.683 1.508-2.004 1.508-3.964V6.858c0-1.96-.5-3.282-1.508-3.965C4.63 2.21 3.02 1.868.802 1.868V.778h7.942l27.895 38.407V9.803c0-3.107-.527-5.208-1.572-6.297-1.046-1.09-2.656-1.631-4.837-1.631V.785h15.086v1.09h.006Zm21.582 42.273c-2.44 1.554-5.324 2.334-8.652 2.334-2.503 0-4.842-.658-7.023-1.98-2.18-1.32-3.91-3.164-5.203-5.53-1.293-2.366-1.94-5.035-1.94-8.019 0-3.326.678-6.401 2.035-9.237 1.356-2.837 3.264-5.093 5.73-6.775 2.465-1.683 5.317-2.527 8.556-2.527 2.054 0 3.898.425 5.54 1.276s2.922 1.992 3.847 3.417a8.45 8.45 0 0 1 1.389 4.699c0 1.147-.197 2.108-.584 2.875-.393.767-1.04 1.147-1.94 1.147H47.358a36.657 36.657 0 0 0-.12 2.56c0 2.984.494 5.653 1.476 8.018.983 2.366 2.453 4.242 4.405 5.621 1.952 1.386 4.298 2.076 7.048 2.076 2.504 0 4.843-.651 7.023-1.947 2.174-1.302 4.025-3.203 5.54-5.717l.678.509c-1.889 3.236-4.056 5.634-6.497 7.187l-.006.013ZM47.541 24.816h17.55c.945 0 1.623-.2 2.035-.606.412-.406.615-1.244.615-2.527a8.03 8.03 0 0 0-1.078-4.054 7.754 7.754 0 0 0-3.017-2.972c-1.293-.722-2.738-1.09-4.342-1.09-3.162 0-5.767 1.045-7.821 3.134-2.054 2.088-3.366 4.796-3.942 8.115Zm74.697-10.481c-1.109 0-2.035.18-2.77.541-.742.361-1.407 1.058-2.003 2.076-.596 1.025-1.179 2.533-1.756 4.538l-6.832 24.031h-1.845l-4.861-12.267-4.19-10.417-8.19 22.684h-1.787l-9.418-26.39c-.66-1.83-1.325-3.088-2.003-3.771-.678-.683-1.737-1.025-3.17-1.025v-.767h12.93v.767c-1.603 0-2.845.18-3.726.541-.881.361-1.325 1.013-1.325 1.947 0 .6.102 1.128.31 1.599l8.253 22.877 7.39-20.26c-.944-2.256-1.704-3.842-2.275-4.764-.57-.921-1.09-1.47-1.54-1.663-.45-.193-1.173-.29-2.155-.29v-.767h12.93v.767c-3.327 0-4.988.851-4.988 2.56 0 .554.101 1.063.31 1.533l9.115 22.813 5.787-20.324c.412-1.406.615-2.579.615-3.514 0-1.108-.349-1.895-1.046-2.365-.697-.47-1.889-.703-3.569-.703v-.767h11.821v.767l-.012.013Zm23.217 29.845c-2.504 1.535-5.292 2.302-8.373 2.302-2.751 0-5.267-.735-7.543-2.205-2.275-1.47-4.062-3.442-5.355-5.911-1.293-2.469-1.94-5.131-1.94-7.987 0-3.365.729-6.42 2.187-9.173 1.458-2.745 3.416-4.911 5.882-6.484 2.465-1.58 5.172-2.366 8.125-2.366 2.954 0 5.521.69 7.822 2.076 2.301 1.386 4.095 3.3 5.388 5.75 1.293 2.45 1.939 5.208 1.939 8.276 0 3.449-.729 6.55-2.187 9.296-1.457 2.746-3.435 4.886-5.945 6.42v.006Zm-1.293-28.053c-1.927-1.405-4.082-2.108-6.465-2.108s-4.374.587-6.218 1.76c-1.844 1.173-3.302 2.862-4.373 5.08-1.072 2.217-1.604 4.834-1.604 7.857 0 3.023.583 5.828 1.756 8.277 1.172 2.45 2.782 4.364 4.836 5.75 2.053 1.386 4.354 2.075 6.896 2.075 2.009 0 3.879-.554 5.603-1.662 1.724-1.11 3.112-2.772 4.158-4.983 1.046-2.218 1.572-4.945 1.572-8.18 0-2.985-.545-5.686-1.635-8.116-1.091-2.43-2.599-4.345-4.526-5.75Zm36.547 28.021c-2.44 1.554-5.324 2.334-8.652 2.334-2.504 0-4.842-.658-7.023-1.98-2.18-1.32-3.911-3.164-5.204-5.53-1.293-2.366-1.939-5.035-1.939-8.019 0-3.365.684-6.465 2.06-9.295 1.375-2.837 3.296-5.08 5.755-6.743 2.466-1.663 5.235-2.494 8.316-2.494 1.686 0 3.296.225 4.836.67 1.54.445 2.77 1.044 3.695 1.792.926.748 1.388 1.547 1.388 2.398a2.33 2.33 0 0 1-.678 1.663c-.45.47-1.008.703-1.66.703a2.73 2.73 0 0 1-1.661-.542c-.494-.36-1.128-.948-1.908-1.76-1.027-1.063-1.977-1.882-2.865-2.462-.881-.574-1.977-.864-3.296-.864-2.301 0-4.259.67-5.882 2.011-1.622 1.341-2.852 3.107-3.695 5.305-.843 2.192-1.261 4.551-1.261 7.059 0 2.984.494 5.653 1.476 8.019.983 2.366 2.453 4.241 4.406 5.62 1.952 1.38 4.297 2.076 7.048 2.076 2.503 0 4.842-.65 7.023-1.946 2.174-1.302 4.025-3.204 5.539-5.718l.679.51c-1.889 3.235-4.057 5.633-6.497 7.187v.006Zm32.699 0c-2.44 1.554-5.324 2.334-8.652 2.334-2.503 0-4.842-.658-7.022-1.98-2.181-1.32-3.911-3.164-5.204-5.53-1.293-2.366-1.94-5.035-1.94-8.019 0-3.326.678-6.401 2.035-9.237 1.356-2.837 3.264-5.093 5.73-6.775 2.465-1.683 5.318-2.527 8.556-2.527 2.054 0 3.899.425 5.54 1.276 1.642.851 2.922 1.992 3.848 3.417a8.454 8.454 0 0 1 1.388 4.699c0 1.147-.197 2.108-.583 2.875-.393.767-1.04 1.147-1.94 1.147h-21.309a36.347 36.347 0 0 0-.121 2.56c0 2.984.495 5.653 1.477 8.018.982 2.366 2.453 4.242 4.405 5.621 1.952 1.38 4.297 2.076 7.048 2.076 2.504 0 4.843-.651 7.023-1.947 2.174-1.302 4.025-3.203 5.54-5.717l.678.509c-1.889 3.236-4.056 5.634-6.497 7.187v.013Zm-19.363-19.332h17.551c.944 0 1.622-.2 2.034-.606.412-.406.615-1.244.615-2.527 0-1.45-.361-2.803-1.078-4.054a7.752 7.752 0 0 0-3.017-2.972c-1.293-.722-2.738-1.09-4.341-1.09-3.163 0-5.768 1.045-7.822 3.134-2.053 2.088-3.366 4.796-3.942 8.115Zm52.158 21.666c-1.065 0-1.845-.278-2.339-.832-.494-.554-.824-1.425-.982-2.617-.159-1.193-.248-2.959-.248-5.305-1.768 3.152-3.651 5.402-5.666 6.742-2.009 1.341-4.247 2.012-6.712 2.012-2.136 0-3.879-.523-5.236-1.567-1.356-1.044-2.035-2.436-2.035-4.183 0-2.044.577-3.868 1.725-5.467 1.147-1.598 3.143-3.165 5.97-4.699 2.833-1.534 6.814-3.152 11.948-4.854v-2.81c0-3.281-.482-5.68-1.445-7.188-.964-1.514-2.269-2.269-3.911-2.269-1.844 0-3.486.574-4.925 1.728-1.439 1.147-2.668 2.727-3.695 4.731-.577 1.148-1.078 1.98-1.509 2.495-.431.51-.912.767-1.445.767-.412 0-.779-.18-1.109-.541-.329-.361-.494-.845-.494-1.438 0-.51.146-1.044.431-1.598 1.065-2.044 2.852-3.752 5.356-5.112 2.503-1.367 4.969-2.044 7.39-2.044 2.751 0 4.874.87 6.376 2.617 1.496 1.747 2.251 4.364 2.251 7.858v17.83c0 1.36.202 2.346.614 2.94.412.6.881.896 1.414.896.367 0 .779-.13 1.229-.38.45-.259 1.027-.684 1.725-1.277l.431.831c-1.972 1.831-3.677 2.747-5.109 2.747v-.013Zm-3.569-10.74v-9.14c-4.392 1.618-7.77 3.075-10.128 4.377-2.358 1.302-4.032 2.61-5.02 3.932-.989 1.321-1.477 2.836-1.477 4.538 0 1.489.545 2.675 1.635 3.545 1.09.877 2.453 1.309 4.095 1.309 1.927 0 3.898-.716 5.913-2.14 2.016-1.425 3.677-3.571 4.989-6.42h-.007Zm47.474 8.69v1.09h-15.395v-1.09c2.174 0 3.733-.342 4.677-1.025.945-.683 1.414-1.98 1.414-3.9v-15.4c0-6.388-2.421-9.585-7.264-9.585-1.768 0-3.448.406-5.052 1.212-1.603.812-3.327 2.32-5.172 4.538v19.235c0 1.36.178 2.398.526 3.1.349.703.945 1.18 1.788 1.438.843.258 2.085.38 3.727.38v1.09h-15.396v-1.09c2.174 0 3.733-.341 4.678-1.025.944-.683 1.413-1.978 1.413-3.9V18.042h-6.281v-1.089c2.091 0 3.777-.277 5.051-.831 1.274-.555 1.908-1.406 1.908-2.56h2.586v5.306c1.769-2.218 3.569-3.842 5.42-4.887a11.95 11.95 0 0 1 5.97-1.566c3.081 0 5.439.915 7.08 2.746 1.642 1.83 2.44 4.815 2.402 8.947l-.12 15.464c-.038 1.915.38 3.204 1.261 3.868.881.664 2.472.993 4.773.993h.006Z"/>
</svg>