<svg viewBox="-2.5 0 72.5 75" fill="none" xmlns="http://www.w3.org/2000/svg">
    <path
        d="M36.023 68.83c-.03-.681-.047-1.363-.091-2.044-.087-1.404-.188-2.811-.282-4.215-.032-.46-.042-.925-.084-1.385-.034-.389-.13-.772-.158-1.158-.04-.475-.04-.954-.047-1.432-.005-.538.005-1.074-.01-1.613a49.962 49.962 0 0 0-.076-2.017c-.02-.366-.092-.725-.141-1.09a1.227 1.227 0 0 1-.02-.188c-.032-.903-.067-1.81-.089-2.713-.015-.52.017-1.04-.02-1.56-.04-.563-.133-1.126-.202-1.687a7.537 7.537 0 0 1-.047-.526.577.577 0 0 0-.39-.526c-.243-.099-.443-.02-.63.162-.344.34-.465.785-.616 1.21-.242.689-.42 1.402-.662 2.093-.326.932-.694 1.847-1.025 2.78-.183.518-.3 1.06-.485 1.576-.257.718-.556 1.426-.83 2.14-.306.803-.637 1.6-.904 2.417-.198.597-.27 1.232-.462 1.827-.255.79-.563 1.56-.86 2.339-.314.819-.623 1.64-.961 2.45-.131.324-.316.627-.502.924-.185.298-1.208 2.905-1.084 2.612.6-1.446-.257.841-.88 1.754-.623.912-1.584.951-2.187.93-.756-.03-1.368-.527-1.61-1.243-.131-.376-.282-.738-.27-1.148.02-.63.111-1.242.393-1.805.833-1.646 1.54-3.348 2.258-5.042.378-.888.779-1.768 1.162-2.654.44-1.025.874-2.053 1.297-3.084.462-1.119.919-2.243 1.361-3.372.2-.511.334-1.047.549-1.554.304-.718.687-1.404.98-2.13.376-.93.964-1.763 1.226-2.744.054-.2.084-.399-.111-.517-.205-.128-.403-.032-.529.143a26.42 26.42 0 0 0-.8 1.188c-.326.519-.6 1.074-.966 1.564-.44.588-.937 1.131-1.433 1.675-.458.499-.813 1.057-1.17 1.628a25.928 25.928 0 0 1-1.58 2.248c-1.147 1.468-2.338 2.9-3.49 4.36-.617.79-1.18 1.628-1.793 2.42-.353.458-.751.876-1.132 1.31-.091.112-.187.217-.271.333-.44.588-1.05.962-1.668 1.31-.593.333-1.248.404-1.9.146-.119-.044-.205-.172-.312-.256-.526-.406-.86-.961-1.16-1.532-.072-.138-.09-.369-.018-.492.326-.583.7-1.139 1.043-1.714.704-1.183 1.571-2.248 2.43-3.315.794-.987 1.68-1.899 2.524-2.846.965-1.087 1.944-2.164 2.885-3.27.559-.657 1.046-1.373 1.584-2.045.46-.57.964-1.106 1.433-1.672.504-.605.971-1.244 1.495-1.832.287-.327.687-.553.98-.873.35-.377.673-.787.94-1.22.333-.541.02-.912-.564-.957-.42-.032-.775.194-1.116.399-.354.204-.672.462-1.006.698-.588.41-1.184.812-1.764 1.232-1.512 1.105-3.014 2.221-4.524 3.328-1.075.784-2.221 1.453-3.38 2.1-.724.403-1.418.87-2.113 1.326-1.107.718-2.199 1.458-3.306 2.179-.197.128-.427.209-.644.302-.354.158-.71.3-1.058.462a.94.94 0 0 1-.645.09c-.257-.058-.531-.018-.793-.043-.244-.024-.511-.024-.724-.128a1.459 1.459 0 0 1-.54-.484 3.172 3.172 0 0 1-.564-1.648.714.714 0 0 1 .081-.32c.198-.418.405-.828.6-1.246.171-.36.473-.586.806-.758 1.063-.548 2.15-1.057 3.205-1.62.447-.242.837-.584 1.26-.871.447-.31.904-.605 1.354-.91.865-.59 1.724-1.19 2.6-1.773a64.952 64.952 0 0 1 1.995-1.272c1.174-.718 2.33-1.463 3.539-2.12.931-.511 1.776-1.134 2.666-1.704.501-.32 1.052-.563 1.576-.856.546-.305 1.033-.677 1.332-1.247a.68.68 0 0 0-.005-.701c-.297-.514-.742-.812-1.302-.942-.346-.081-.677.044-.979.19-.803.386-1.655.59-2.515.791-1 .234-1.996.477-2.997.706-.86.2-1.722.389-2.584.56-.717.143-1.448.22-2.155.39-.77.181-1.51.462-2.239.786-.78.347-1.598.618-2.413.876-1.053.33-2.115.627-3.185.9-.247.062-.541-.017-.803-.076-.398-.086-.789-.212-1.179-.325-.39-.115-.677-.388-.954-.666a.49.49 0 0 1-.143-.318c-.015-.477-.052-.961.015-1.43.042-.316.284-.599.356-.913.195-.864.882-1.1 1.598-1.286.603-.158 1.22-.256 1.836-.377.44-.086.882-.162 1.324-.246.025-.002.047-.01.072-.012.558-.06 1.12-.1 1.67-.184.42-.067.83-.185 1.246-.286.583-.14 1.166-.275 1.749-.43.828-.22 1.65-.458 2.476-.681.743-.205 1.485-.401 2.228-.6.882-.234 1.762-.483 2.649-.692a17.6 17.6 0 0 1 1.893-.359c.63-.08 1.267-.08 1.9-.13.385-.03.733-.17 1.01-.445.143-.143.158-.3.074-.5-.19-.46-.526-.659-1.018-.705a14.67 14.67 0 0 0-2.846.015c-.904.083-1.806.002-2.7-.077a55.148 55.148 0 0 1-3.235-.383c-.425-.062-.823-.268-1.24-.372-.652-.16-1.31-.302-1.972-.43a72.96 72.96 0 0 0-2.419-.423c-.489-.076-.986-.13-1.48-.177-.499-.052-1-.07-1.492-.128-1.018-.128-2.05-.204-2.975-.71a1.425 1.425 0 0 1-.4-.36c-.17-.211-.297-.455-.465-.666-.457-.569-.464-1.186-.225-1.828.149-.4.336-.79.495-1.188.084-.201.197-.3.432-.3.363.003.724-.024 1.087-.066.877-.103 1.73.076 2.594.172.962.1 1.925.157 2.884.263.707.076 1.413.185 2.115.313.6.105 1.19.26 1.784.395.758.173 1.517.355 2.278.515.558.115 1.12.201 1.678.317.605.123 1.208.256 1.81.39.72.163 1.426.402 2.155.478.808.088 1.52.443 2.285.635.334.083.68.204 1.038.039.247-.118.329-.34.114-.502-.29-.216-.613-.418-.951-.531-.648-.214-1.191-.615-1.8-.89a133.036 133.036 0 0 1-3.283-1.545 99.974 99.974 0 0 1-2.713-1.382c-.746-.386-1.485-.782-2.223-1.183-1.16-.632-2.308-1.284-3.464-1.913-.549-.3-1.11-.573-1.663-.856-.025-.013-.045-.02-.067-.032-.556-.362-1.13-.701-1.655-1.092-.566-.418-.952-.974-1.226-1.636-.33-.804-.091-1.46.413-2.056.185-.219.489-.342.736-.509.015-.01.032-.01.045-.017.73-.472 1.452-.295 2.14.076a344.33 344.33 0 0 1 4.928 2.745c.371.204.717.452 1.075.676 1.287.81 2.58 1.611 3.862 2.42 1.008.635 2.021 1.267 3.007 1.928.598.399 1.149.864 1.73 1.29.593.432 1.203.845 1.796 1.28.4.29.776.613 1.18.896.159.11.36.194.55.214.335.039.476-.19.296-.487a5.23 5.23 0 0 0-.6-.832c-.89-.971-1.92-1.805-2.773-2.82-.877-1.046-1.87-1.993-2.792-3.003-.407-.448-.758-.945-1.149-1.412-.563-.676-1.151-1.335-1.71-2.02-.335-.415-.637-.858-.95-1.29-.35-.485-.693-.974-1.048-1.456-.405-.556-.86-1.082-1.223-1.66-.425-.674-.786-1.388-1.018-2.157-.03-.099-.03-.204-.03-.31-.002-.32.027-.645-.002-.962-.035-.369.106-.671.274-.974a.368.368 0 0 1 .13-.137c.361-.21.72-.419 1.09-.61.183-.091.388-.145.588-.21a.195.195 0 0 1 .139.018c.714.47 1.485.875 2.115 1.439.882.787 1.571 1.763 2.27 2.72.344.47.707.927 1.043 1.404.262.376.514.77.734 1.173.398.72.944 1.328 1.468 1.95.689.817 1.223 1.732 1.779 2.637.232.381.474.762.77 1.097.49.546.868 1.158 1.219 1.797.375.684.785 1.353 1.16 2.034.184.335.29.714.49 1.038.264.43.507.89.986 1.149.155.08.27.066.398-.035.358-.285.491-.811.296-1.31-.16-.406-.368-.797-.546-1.196-.26-.58-.502-1.17-.778-1.744-.215-.442-.49-.858-.707-1.3-.183-.37-.316-.76-.477-1.142-.158-.374-.301-.755-.486-1.114-.292-.575-.62-1.131-.92-1.704-.306-.598-.59-1.203-.892-1.8-.182-.357-.385-.701-.558-1.058-.076-.155-.114-.332-.168-.5-.119-.37-.289-.737-.348-1.116-.129-.814-.393-1.584-.71-2.331-.358-.854-.424-1.764-.607-2.654a1.042 1.042 0 0 1-.015-.263c.027-.438.052-.876.096-1.316.027-.27.173-.497.425-.602.445-.197.9-.372 1.36-.52.147-.05.333-.002.498.025.838.133 1.379.746 1.972 1.26.099.086.153.24.195.373.153.485.287.977.442 1.461.23.711.46 1.424.714 2.13.19.539.433 1.058.63 1.596.164.448.32.905.443 1.37.202.762.642 1.417.96 2.127.142.313.255.64.327.972.203.966.46 1.903.944 2.777.158.285.212.627.319.939.11.317.224.63.343.944.457 1.203 1.043 2.364 1.305 3.643.047.219.168.43.276.632.111.204.285.226.455.061.195-.19.311-.403.306-.698-.012-1.7-.005-3.4-.012-5.094-.003-.76.128-1.495.319-2.225.047-.182.02-.384.015-.573-.02-.72-.075-1.442-.07-2.16.01-1.224.04-2.444.09-3.67.024-.555.118-1.106.17-1.667.03-.359.052-.718.057-1.077.012-.819.153-1.61.588-2.316.25-.404.536-.79.83-1.169.232-.3.55-.396.924-.273.272.089.558.145.818.259.622.263 1.082.688 1.304 1.355.092.275.257.528.361.801.052.14.06.3.057.448-.012.962-.015 1.92-.054 2.885-.02.58-.1 1.158-.149 1.739-.01.137.003.275-.002.413-.035.568-.082 1.131-.106 1.7-.035.784-.042 1.57-.097 2.355-.027.386-.126.77-.2 1.156-.126.657-.274 1.311-.378 1.973-.054.32-.017.656-.047.984-.032.386-.084.772-.146 1.158a51.97 51.97 0 0 1-.296 1.628c-.072.384-.156.767-.232 1.148-.077.392-.176.778-.22 1.174-.045.376.276.573.617.405.361-.174.574-.477.722-.828.178-.428.319-.871.516-1.29.129-.28.331-.523.492-.789.257-.423.519-.83.709-1.296.168-.403.474-.752.731-1.116.606-.873 1.236-1.73 1.821-2.617.618-.94 1.189-1.906 1.797-2.855.175-.27.417-.5.617-.755.363-.468.717-.94 1.075-1.412.143-.19.284-.386.43-.576.383-.501.65-1.055.86-1.647.091-.27.333-.487.457-.755.457-1.014 1.178-1.81 2.048-2.484.24-.185.472-.404.744-.505.393-.14.82-.199 1.238-.263a.543.543 0 0 1 .383.106c.373.317.766.625.948 1.117.127.334.39.632.448.971.128.745.247 1.53-.131 2.233a14.259 14.259 0 0 1-2.268 3.106c-.408.423-.717.935-1.075 1.405-.578.762-1.174 1.517-1.742 2.287-.462.62-.887 1.271-1.354 1.891-.311.413-.672.787-.996 1.19-.67.824-1.341 1.643-1.984 2.487-.815 1.07-1.608 2.15-2.387 3.244-.291.413-.536.863-.773 1.313-.168.315-.067.588.195.642a.427.427 0 0 0 .255-.03c.489-.243 1.023-.418 1.413-.83.128-.134.257-.269.368-.414.457-.615 1.09-1.03 1.678-1.5.672-.539 1.317-1.114 1.981-1.66.39-.317.793-.625 1.204-.915a30.647 30.647 0 0 0 2.488-1.99c.892-.79 1.838-1.524 2.77-2.267.669-.534 1.36-1.038 2.028-1.572.203-.16.358-.381.541-.573.462-.492 1.015-.863 1.613-1.183.337-.177.65-.406.979-.605.521-.315 1.41-.177 1.826.273.096.106.197.21.296.315.796.86.971 1.842.613 2.949-.14.44-.326.814-.67 1.134-.32.302-.565.686-.874 1.005a8.515 8.515 0 0 1-2.254 1.658c-1.173.612-2.31 1.262-3.355 2.086-.766.6-1.596 1.123-2.387 1.692a82.12 82.12 0 0 0-2.419 1.805c-.62.487-1.324.824-2 1.215-.557.317-1.039.762-1.555 1.146-.333.248-.66.511-1.015.728-.443.27-.75.669-1.073 1.052-.113.13-.158.327-.205.502-.062.234.225.504.541.57.665.138 1.238-.07 1.792-.422.674-.43 1.358-.846 2.12-1.107 1.596-.553 3.076-1.348 4.57-2.113a44.14 44.14 0 0 1 1.95-.924c.217-.096.46-.143.694-.185.786-.142 1.465-.563 2.212-.8.847-.267 1.608-.712 2.408-1.076.962-.44 1.952-.802 2.978-1.073a2.7 2.7 0 0 0 .823-.383c.326-.217.677-.315 1.047-.384.287-.054.566-.138.853-.174a.682.682 0 0 1 .373.09c.14.072.25.202.39.276.284.145.413.398.563.659.215.371.292.77.354 1.176.027.172-.02.356-.042.533-.074.603-.504.954-.937 1.306-.516.418-1.003.876-1.64 1.112-.593.219-1.191.428-1.784.642-.45.162-.907.31-1.34.509-.97.44-1.978.728-3.019.934-1.037.21-2.013.596-2.947 1.117-.863.484-1.794.846-2.7 1.25-.992.442-2 .855-2.985 1.313-.905.418-1.824.777-2.805.974-.721.145-1.39.437-1.957.914-.563.475-.48.633-.014 1.078.326.314.79.516 1.225.676.492.182 1.018.241 1.562.224a32 32 0 0 1 2.791.03c.462.024.917.171 1.374.258.277.051.551.103.833.137.447.047.894.086 1.342.116 1.42.096 2.843.162 4.264.283.677.059 1.347.216 2.024.32.284.044.573.066.86.098 1.39.157 2.782.312 4.175.467.59.066 1.181.125 1.777.19.494.053.916.201 1.094.742.067.197.242.354.341.541.052.101.07.231.06.344-.048.527-.206 1.021-.389 1.518-.175.482-.533.666-.966.802-.368.115-.721.297-1.094.356a8.58 8.58 0 0 1-1.7.111c-.526-.025-1.045-.16-1.564-.258-.598-.113-1.193-.244-1.791-.36-1.24-.24-2.503-.3-3.758-.425-1.122-.11-2.251-.216-3.346-.553-1.122-.344-2.28-.531-3.447-.67-.813-.095-1.62-.233-2.428-.35-.144-.018-.292-.003-.435-.02-.534-.067-1.075-.101-1.596-.224-.574-.13-1.102.012-1.639.14-.158.04-.182.167-.16.305.089.585.408 1.016.939 1.247 1.196.526 2.332 1.16 3.447 1.834.59.36 1.102.854 1.685 1.23.936.61 1.882 1.215 2.863 1.749 1.134.617 2.19 1.348 3.286 2.026.663.411 1.384.733 2.049 1.144.674.416 1.312.89 1.959 1.345.79.558 1.576 1.124 2.364 1.685.458.327.905.666 1.367.976.405.273.492.711.65 1.114.195.485.012.96-.04 1.439-.06.556-.445.92-.803 1.27-.227.218-.59.3-.892.442-.6.283-1.134.059-1.623-.263a121.615 121.615 0 0 1-3.047-2.098c-.88-.625-1.72-1.306-2.614-1.911-.714-.482-1.482-.878-2.226-1.316a22.324 22.324 0 0 1-2.878-1.987 68.942 68.942 0 0 0-3.133-2.408c-.638-.462-1.379-.79-2.007-1.261-.815-.613-1.57-1.302-2.34-1.975-.382-.34-.807-.514-1.309-.512-.262 0-.435.13-.531.376-.25.655-.057 1.242.321 1.764.383.524.803 1.018 1.238 1.498.662.727 1.23 1.53 1.779 2.34.929 1.37 1.853 2.743 2.762 4.123.398.602.756 1.234 1.122 1.859.77 1.303 1.806 2.39 2.804 3.514.534.6.991 1.272 1.456 1.931.689.974 1.477 1.864 2.268 2.76.235.268.457.553.655.853.259.39.313.848.326 1.31a.864.864 0 0 1-.37.746c-.394.285-.814.538-1.217.811-.318.217-.652.175-1 .082-1.058-.296-1.834-.95-2.51-1.79-.796-.997-1.438-2.091-2.172-3.127-.408-.573-.865-1.111-1.297-1.662-.42-.541-.843-1.085-1.265-1.62-.198-.25-.4-.498-.616-.734-.729-.809-1.238-1.763-1.808-2.676-.42-.676-.771-1.396-1.184-2.075-.385-.627-.82-1.22-1.22-1.835-.139-.212-.24-.448-.364-.666-.457-.79-.921-1.572-1.366-2.369-.217-.39-.39-.814-.59-1.217-.312-.627-.761-1.1-1.466-1.277-.296-.076-.45.04-.563.327-.175.44-.027.846.057 1.27.086.43.153.863.225 1.298.11.686.227 1.375.328 2.061.074.517.144 1.033.196 1.55.054.543.071 1.086.123 1.63.114 1.217.22 2.44.358 3.657.047.433.203.858.25 1.296.069.595.076 1.198.118 1.798.047.676.112 1.355.156 2.034.027.39.02.787.047 1.178.032.502.091 1 .126 1.503.03.442.082.772.14 1.178.199 1.357.384 1.778.08 3.703-.128.822-1.371 1.105-2.206 1.124-.44.01-.883.143-1.317-.044-.057-.025-.126-.04-.173-.076-.657-.541-1.189-1.146-1.11-2.083.02-.27.003-.544.003-.817h-.015"
        fill="currentColor" />
</svg>