<svg xmlns="http://www.w3.org/2000/svg" viewBox="0 0 150 98" fill="none">
  <path fill="currentColor" stroke="currentColor" stroke-width=".092"
    d="M77.857 6.898h11.385a104.12 104.12 0 0 1 5.99 17.095 86.715 86.715 0 0 1-17.375 2.738V6.898Zm-16.88 0H71.94v19.947a85.994 85.994 0 0 1-17.312-2.04c1.797-7.615 4.188-13.774 6.35-17.907Zm-12.19 0h6.356c-1.98 4.286-4.005 9.937-5.588 16.62-9.347-2.673-17.127-6.587-22.767-10.362a41.58 41.58 0 0 1 21.998-6.258ZM6.871 49c0-12.885 5.762-24.419 14.84-32.141 6.292 4.507 15.45 9.333 26.632 12.481-1.982 11.028-2.622 24.237-.196 38.443-8.535 2.821-17.373 7.161-26.358 13.424C12.668 73.484 6.872 61.922 6.872 49Zm41.914 42.102a41.58 41.58 0 0 1-21.893-6.193c7.646-5.119 15.158-8.768 22.43-11.236a109.048 109.048 0 0 0 5.553 17.429h-6.09Zm23.154 0H60.57a103.892 103.892 0 0 1-6.223-18.96A78.38 78.38 0 0 1 71.94 69.45v21.651Zm17.893 0H77.857V69.46a78.302 78.302 0 0 1 18.215 2.919c-1.695 7.837-4.049 14.268-6.24 18.723Zm11.381 0h-5.605c1.978-4.488 3.962-10.308 5.471-17.127 8.773 3.116 16.017 7.391 21.208 11.426a41.575 41.575 0 0 1-21.074 5.701ZM143.128 49c0 13.306-6.145 25.17-15.739 32.885-5.861-4.834-14.518-10.122-25.177-13.79 1.885-11.461 2.287-25.131-.624-39.753 8.337-2.666 16.951-6.656 25.7-12.308 9.652 7.713 15.84 19.614 15.84 32.966ZM101.214 6.898a41.578 41.578 0 0 1 20.718 5.495c-7.375 4.535-14.631 7.832-21.671 10.122a109.23 109.23 0 0 0-5.3-15.617h6.253ZM53.432 30.619a91.897 91.897 0 0 0 18.508 2.178v30.692a83.79 83.79 0 0 0-18.733 2.786c-2.168-13.178-1.577-25.42.225-35.656Zm24.425 2.075a92.221 92.221 0 0 0 18.68-2.886c2.625 13.49 2.296 26.101.626 36.718a84.211 84.211 0 0 0-19.306-3.023v-30.81Zm-42.281 1.052h-.046V58.07l-13.28-24.3-.014-.024H14.963v31.737H20.455V41.025l13.28 24.434.013.024h7.274V33.746h-5.446Zm100.782 21.477.003-.049h-5.489l-.006.039c-.291 1.82-1.118 3.268-2.368 4.26-1.251.993-2.928 1.533-4.923 1.533h-.45c-2.866 0-5.193-1.158-6.805-3.159s-2.51-4.85-2.51-8.233c0-3.382.898-6.23 2.51-8.232 1.612-2.001 3.939-3.159 6.805-3.159h.45c1.995 0 3.672.551 4.922 1.55 1.251.998 2.078 2.445 2.369 4.243l.006.039h5.489l-.003-.05c-.226-3.108-1.559-5.787-3.797-7.688-2.237-1.901-5.376-3.023-9.211-3.023-4.759 0-8.519 1.689-11.088 4.576-2.569 2.886-3.944 6.967-3.944 11.744 0 4.778 1.375 8.859 3.944 11.745 2.569 2.887 6.329 4.576 11.088 4.576 3.835 0 6.974-1.1 9.211-2.99 2.238-1.89 3.571-4.568 3.797-7.722ZM48.786.954C22.37.954.954 22.465.954 49S22.37 97.046 48.786 97.046h52.428c26.417 0 47.832-21.511 47.832-48.046S127.631.954 101.214.954H48.786Z" />
</svg>