<svg viewBox="0 0 172 318" fill="none" xmlns="http://www.w3.org/2000/svg">
  <mask id="newcoin_mask" fill="#000">
    <path d="M146.147 38.362a6.394 6.394 0 0 1-3.219-.863l-11.17-6.474a6.274 6.274 0 0 1-2.275-2.265 6.12 6.12 0 0 1-.838-3.073V12.58a6.12 6.12 0 0 1 .85-3.1 6.267 6.267 0 0 1 2.31-2.272L143.01.813a6.464 6.464 0 0 1 6.251 0l11.783 6.44a6.245 6.245 0 0 1 2.373 2.276c.57.952.87 2.037.868 3.142v12.38a6.143 6.143 0 0 1-.812 3.03 6.29 6.29 0 0 1-2.209 2.263l-11.876 7.11a6.424 6.424 0 0 1-3.241.908Zm.081-36.856a4.832 4.832 0 0 0-2.396.625l-11.24 6.383a4.775 4.775 0 0 0-1.743 1.722 4.656 4.656 0 0 0-.642 2.344v13.107c-.001.81.212 1.608.617 2.315a4.749 4.749 0 0 0 1.698 1.717l11.182 6.474a4.855 4.855 0 0 0 4.92 0l11.876-7.167a4.748 4.748 0 0 0 1.69-1.702c.405-.7.62-1.49.625-2.296V12.626a4.607 4.607 0 0 0-.668-2.344 4.732 4.732 0 0 0-1.775-1.7l-11.817-6.497a4.942 4.942 0 0 0-2.327-.579Z"/>
    <path d="M141.104 30.427a.71.71 0 0 1-.407-.129.738.738 0 0 1-.268-.34l-5.033-13.06v8.409a.775.775 0 0 1-.211.542.718.718 0 0 1-1.043 0 .777.777 0 0 1-.217-.542V12.924a.774.774 0 0 1 .198-.46.721.721 0 0 1 .91-.139c.144.087.257.221.318.382l5.022 13.046V8.617a.788.788 0 0 1 .244-.48.722.722 0 0 1 .982 0 .776.776 0 0 1 .246.48v21.054a.77.77 0 0 1-.17.484.721.721 0 0 1-.427.26l-.144.012ZM145.249 33.072a.773.773 0 0 1-.541-.22.742.742 0 0 1-.224-.531V4.711a.737.737 0 0 1 .747-.735.76.76 0 0 1 .371.096l6.917 3.621c.166.1.287.259.338.444a.739.739 0 0 1-.062.55.777.777 0 0 1-.995.329l-5.786-3.072v11.838h5.808a.751.751 0 0 1 .672.745.751.751 0 0 1-.672.746h-5.808v13.082a.752.752 0 0 1-.236.51.775.775 0 0 1-.529.207Zm11.413-5.044a.77.77 0 0 1-.529-.22.739.739 0 0 1-.224-.52V11.247l-2.649-1.312a.754.754 0 0 1-.374-.435.743.743 0 0 1 .492-.936.77.77 0 0 1 .578.048l2.991 1.525 2.967 1.524a.74.74 0 0 1-.118 1.371.77.77 0 0 1-.578-.048l-1.894-.964v15.268a.744.744 0 0 1-.212.509.768.768 0 0 1-.507.23h.057Z"/>
  </mask>
  <path d="M146.147 38.362a6.394 6.394 0 0 1-3.219-.863l-11.17-6.474a6.274 6.274 0 0 1-2.275-2.265 6.12 6.12 0 0 1-.838-3.073V12.58a6.12 6.12 0 0 1 .85-3.1 6.267 6.267 0 0 1 2.31-2.272L143.01.813a6.464 6.464 0 0 1 6.251 0l11.783 6.44a6.245 6.245 0 0 1 2.373 2.276c.57.952.87 2.037.868 3.142v12.38a6.143 6.143 0 0 1-.812 3.03 6.29 6.29 0 0 1-2.209 2.263l-11.876 7.11a6.424 6.424 0 0 1-3.241.908Zm.081-36.856a4.832 4.832 0 0 0-2.396.625l-11.24 6.383a4.775 4.775 0 0 0-1.743 1.722 4.656 4.656 0 0 0-.642 2.344v13.107c-.001.81.212 1.608.617 2.315a4.749 4.749 0 0 0 1.698 1.717l11.182 6.474a4.855 4.855 0 0 0 4.92 0l11.876-7.167a4.748 4.748 0 0 0 1.69-1.702c.405-.7.62-1.49.625-2.296V12.626a4.607 4.607 0 0 0-.668-2.344 4.732 4.732 0 0 0-1.775-1.7l-11.817-6.497a4.942 4.942 0 0 0-2.327-.579Z" fill="#FCFCF3"/>
  <path d="M141.104 30.427a.71.71 0 0 1-.407-.129.738.738 0 0 1-.268-.34l-5.033-13.06v8.409a.775.775 0 0 1-.211.542.718.718 0 0 1-1.043 0 .777.777 0 0 1-.217-.542V12.924a.774.774 0 0 1 .198-.46.721.721 0 0 1 .91-.139c.144.087.257.221.318.382l5.022 13.046V8.617a.788.788 0 0 1 .244-.48.722.722 0 0 1 .982 0 .776.776 0 0 1 .246.48v21.054a.77.77 0 0 1-.17.484.721.721 0 0 1-.427.26l-.144.012ZM145.249 33.072a.773.773 0 0 1-.541-.22.742.742 0 0 1-.224-.531V4.711a.737.737 0 0 1 .747-.735.76.76 0 0 1 .371.096l6.917 3.621c.166.1.287.259.338.444a.739.739 0 0 1-.062.55.777.777 0 0 1-.995.329l-5.786-3.072v11.838h5.808a.751.751 0 0 1 .672.745.751.751 0 0 1-.672.746h-5.808v13.082a.752.752 0 0 1-.236.51.775.775 0 0 1-.529.207Zm11.413-5.044a.77.77 0 0 1-.529-.22.739.739 0 0 1-.224-.52V11.247l-2.649-1.312a.754.754 0 0 1-.374-.435.743.743 0 0 1 .492-.936.77.77 0 0 1 .578.048l2.991 1.525 2.967 1.524a.74.74 0 0 1-.118 1.371.77.77 0 0 1-.578-.048l-1.894-.964v15.268a.744.744 0 0 1-.212.509.768.768 0 0 1-.507.23h.057Z" fill="#FCFCF3"/>
  <path d="M146.147 38.362a6.394 6.394 0 0 1-3.219-.863l-11.17-6.474a6.274 6.274 0 0 1-2.275-2.265 6.12 6.12 0 0 1-.838-3.073V12.58a6.12 6.12 0 0 1 .85-3.1 6.267 6.267 0 0 1 2.31-2.272L143.01.813a6.464 6.464 0 0 1 6.251 0l11.783 6.44a6.245 6.245 0 0 1 2.373 2.276c.57.952.87 2.037.868 3.142v12.38a6.143 6.143 0 0 1-.812 3.03 6.29 6.29 0 0 1-2.209 2.263l-11.876 7.11a6.424 6.424 0 0 1-3.241.908Zm.081-36.856a4.832 4.832 0 0 0-2.396.625l-11.24 6.383a4.775 4.775 0 0 0-1.743 1.722 4.656 4.656 0 0 0-.642 2.344v13.107c-.001.81.212 1.608.617 2.315a4.749 4.749 0 0 0 1.698 1.717l11.182 6.474a4.855 4.855 0 0 0 4.92 0l11.876-7.167a4.748 4.748 0 0 0 1.69-1.702c.405-.7.62-1.49.625-2.296V12.626a4.607 4.607 0 0 0-.668-2.344 4.732 4.732 0 0 0-1.775-1.7l-11.817-6.497a4.942 4.942 0 0 0-2.327-.579Z" stroke="#FCFCF3" stroke-width="1.76" mask="url(#newcoin_mask)"/>
  <path d="M141.104 30.427a.71.71 0 0 1-.407-.129.738.738 0 0 1-.268-.34l-5.033-13.06v8.409a.775.775 0 0 1-.211.542.718.718 0 0 1-1.043 0 .777.777 0 0 1-.217-.542V12.924a.774.774 0 0 1 .198-.46.721.721 0 0 1 .91-.139c.144.087.257.221.318.382l5.022 13.046V8.617a.788.788 0 0 1 .244-.48.722.722 0 0 1 .982 0 .776.776 0 0 1 .246.48v21.054a.77.77 0 0 1-.17.484.721.721 0 0 1-.427.26l-.144.012ZM145.249 33.072a.773.773 0 0 1-.541-.22.742.742 0 0 1-.224-.531V4.711a.737.737 0 0 1 .747-.735.76.76 0 0 1 .371.096l6.917 3.621c.166.1.287.259.338.444a.739.739 0 0 1-.062.55.777.777 0 0 1-.995.329l-5.786-3.072v11.838h5.808a.751.751 0 0 1 .672.745.751.751 0 0 1-.672.746h-5.808v13.082a.752.752 0 0 1-.236.51.775.775 0 0 1-.529.207Zm11.413-5.044a.77.77 0 0 1-.529-.22.739.739 0 0 1-.224-.52V11.247l-2.649-1.312a.754.754 0 0 1-.374-.435.743.743 0 0 1 .492-.936.77.77 0 0 1 .578.048l2.991 1.525 2.967 1.524a.74.74 0 0 1-.118 1.371.77.77 0 0 1-.578-.048l-1.894-.964v15.268a.744.744 0 0 1-.212.509.768.768 0 0 1-.507.23h.057Z" stroke="#FCFCF3" stroke-width="1.76" mask="url(#newcoin_mask)"/>
  <path fill-rule="evenodd" clip-rule="evenodd" d="M166.041 219.26c-70.096 32.478-137.01 13.613-162.098-.139l4.403-8.032c23.152 12.691 86.965 30.848 153.845-.139l3.85 8.31ZM4.218 153.6c70.097-32.477 137.01-13.613 162.098.139l-4.403 8.032c-23.152-12.691-86.965-30.847-153.845.139l-3.85-8.31Z" fill="#FCFCF3"/>
  <path fill-rule="evenodd" clip-rule="evenodd" d="M145.678 280.951c-55.846-85.107-23.305-163.315.253-193.395l8.168 6.397c-21.676 27.676-52.463 100.969.253 181.307l-8.674 5.691ZM26.222 87.707c61.898 85.275 25.775 163.723-.278 193.795l-7.841-6.794c23.985-27.685 57.915-100.738-.277-180.907l8.396-6.094Z" fill="#FCFCF3"/>
  <path fill-rule="evenodd" clip-rule="evenodd" d="M6.153 180.814h159.816v10.375H6.153v-10.375Z" fill="#FCFCF3"/>
  <path fill-rule="evenodd" clip-rule="evenodd" d="M86.06 54.406c46.998 0 85.096 38.098 85.096 85.095v93.361c0 46.997-38.098 85.096-85.095 85.096S.966 279.859.966 232.862v-93.361c0-46.997 38.098-85.095 85.095-85.095Zm74.721 85.095c0-41.267-33.453-74.72-74.72-74.72-41.267 0-74.72 33.453-74.72 74.72v93.361c0 41.267 33.453 74.721 74.72 74.721 41.267 0 74.72-33.454 74.72-74.721v-93.361Z" fill="#FCFCF3"/>
  <path d="M113.022 115.975H69.665l43.357-23.802V79.35h-56.1v9.617h43.598L56.922 112.77v12.823h56.1v-9.618ZM56.12 272.28c0 13.625 7.775 22.28 18.914 23.082v-9.618c-6.491-1.041-10.338-5.93-10.338-13.063v-.801c0-10.259 8.255-16.67 20.276-16.67 12.022 0 20.276 6.411 20.276 16.67v.801c0 7.133-3.927 12.022-10.338 13.063v9.618c10.98-.802 18.914-9.457 18.914-23.082 0-16.91-11.942-26.687-28.852-26.687s-28.851 9.777-28.851 26.687Z" fill="#FCFCF3"/>
</svg>