<svg xmlns="http://www.w3.org/2000/svg" viewBox="0 0 187 187" fill="none">
  <path fill="#fff" d="m68.204 36.648 7.71 23.23 4.857-2.166-12.107-21.277-6.726-30.874a91.533 91.533 0 0 0-12.206 5.447l18.472 25.64ZM20.187 35.944 47.468 51.84l16.487 18.095 3.544-3.937-19.72-14.519-18.668-25.46a91.647 91.647 0 0 0-8.94 9.925h.016ZM57.032 43.16l12.37 21.13 4.297-3.118-16.273-18.291-12.977-28.807a92.551 92.551 0 0 0-10.794 7.858L57.032 43.16ZM32.114 99.742l24.476-.148-.558-5.282-23.984 4.938L.65 96.084a93.268 93.268 0 0 0 1.378 13.288l30.07-9.63h.017ZM32.048 86.814l23.984 4.938.558-5.282-24.476-.148-30.087-9.63A93.014 93.014 0 0 0 .65 89.98l31.4-3.166ZM34.69 74.168l22.425 9.826 1.64-5.052-23.918-5.234-27.429-15.7a92.802 92.802 0 0 0-4.134 12.715l31.415 3.445ZM80.475 32.613l2.706 24.328 5.184-1.099-7.415-23.327-.13-31.58a91.16 91.16 0 0 0-13.076 2.772l12.73 28.906ZM39.906 62.337l19.9 14.273 2.657-4.594-22.31-10.089L16.577 40.88a92.948 92.948 0 0 0-6.693 11.565l30.021 9.892ZM130.035 83.977l22.425-9.827 31.416-3.445a92.881 92.881 0 0 0-4.134-12.714l-27.429 15.683-23.919 5.233 1.641 5.053v.017ZM146.997 61.91 124.686 72l2.658 4.593 19.899-14.273 30.021-9.892a91.828 91.828 0 0 0-6.693-11.565L146.997 61.91ZM129.722 42.868l-16.273 18.291 4.298 3.117 12.369-21.13 23.377-21.227a92.616 92.616 0 0 0-10.794-7.859l-12.977 28.808ZM86.906.295l6.43 30.907-2.41 24.36h5.314l-2.411-24.36L100.26.295a90.13 90.13 0 0 0-6.677-.263c-2.248 0-4.462.115-6.677.263ZM118.502 36.45l-12.107 21.278 4.856 2.165 7.71-23.229 18.472-25.64a91.517 91.517 0 0 0-12.205-5.447l-6.71 30.89-.016-.016ZM106.198 32.497l-7.415 23.328 5.184 1.099 2.706-24.329L119.404 3.69A92.944 92.944 0 0 0 106.329.917l-.131 31.58ZM158.022 26.019l-18.669 25.46-19.719 14.519 3.544 3.937 16.486-18.095 27.282-15.896a93.199 93.199 0 0 0-8.941-9.925h.017ZM118.945 149.416l-7.71-23.229-4.856 2.165 12.107 21.278 6.71 30.89a91.409 91.409 0 0 0 12.205-5.446l-18.472-25.641.016-.017ZM130.116 142.92l-12.369-21.129-4.298 3.116 16.273 18.292 12.977 28.807a92.558 92.558 0 0 0 10.794-7.858l-23.377-21.228ZM147.243 123.742l-19.899-14.272-2.658 4.593 22.311 10.089 23.574 21.048a93.045 93.045 0 0 0 6.693-11.566l-30.021-9.892ZM166.962 150.138l-27.281-15.896-16.487-18.095-3.544 3.937 19.719 14.519 18.669 25.46a91.601 91.601 0 0 0 8.94-9.925h-.016ZM155.035 86.322l-24.476.148.558 5.282 23.984-4.938L186.5 89.98a93.317 93.317 0 0 0-1.378-13.288l-30.071 9.63h-.016ZM155.101 99.25l-23.984-4.938-.558 5.282 24.476.148 30.07 9.63a92.924 92.924 0 0 0 1.378-13.288l-31.399 3.166h.017ZM152.46 111.914l-22.425-9.826-1.641 5.053 23.919 5.233 27.429 15.683a92.862 92.862 0 0 0 4.134-12.714l-31.416-3.445v.016ZM100.26 185.769l-6.431-30.907 2.411-24.361h-5.315l2.412 24.361-6.431 30.907a90.14 90.14 0 0 0 6.677.263c2.247 0 4.462-.115 6.677-.263ZM106.673 153.466l-2.706-24.328-5.184 1.099 7.415 23.328.131 31.579a91.222 91.222 0 0 0 13.075-2.772l-12.731-28.906ZM57.426 143.199l16.273-18.292-4.298-3.116-12.369 21.129-23.377 21.228a92.505 92.505 0 0 0 10.794 7.858l12.977-28.807ZM40.152 124.168l22.311-10.089-2.657-4.594-19.9 14.273-30.02 9.892a91.762 91.762 0 0 0 6.692 11.565l23.574-21.047ZM29.128 160.047l18.669-25.46 19.718-14.518-3.543-3.938-16.487 18.095-27.265 15.896a93.159 93.159 0 0 0 8.94 9.925h-.032ZM68.647 149.63l12.107-21.278-4.856-2.165-7.71 23.229-18.456 25.641a91.562 91.562 0 0 0 12.206 5.447l6.71-30.891v.017ZM34.837 112.374l23.918-5.233-1.64-5.053-22.426 9.826-31.415 3.445a92.782 92.782 0 0 0 4.134 12.714l27.429-15.683v-.016ZM80.968 153.565l7.415-23.328-5.184-1.099-2.707 24.328-12.73 28.906a92.946 92.946 0 0 0 13.075 2.772l.13-31.579Z"/>
</svg>