<svg width="187" height="187" viewBox="0 0 187 187" fill="none" xmlns="http://www.w3.org/2000/svg">
<path d="M68.2044 36.6484L75.9147 59.8778L80.7706 57.7123L68.6637 36.4351L61.9377 5.56104C57.7216 7.08669 53.6368 8.90764 49.7324 11.0075L68.2044 36.6484Z" fill="white"/>
<path d="M20.1868 35.944L47.4682 51.8404L63.9552 69.9351L67.4987 65.9979L47.7799 51.4795L29.1111 26.019C25.8957 29.1032 22.91 32.417 20.1704 35.944H20.1868Z" fill="white"/>
<path d="M57.0321 43.1597L69.4014 64.2893L73.6995 61.1723L57.4258 42.8808L44.4495 14.0737C40.6599 16.436 37.0509 19.0608 33.655 21.9317L57.0321 43.1597V43.1597Z" fill="white"/>
<path d="M32.1138 99.742L56.59 99.5944L56.0322 94.312L32.0482 99.2499L0.64917 96.0837C0.796814 100.595 1.25615 105.041 2.02718 109.372L32.0974 99.742H32.1138Z" fill="white"/>
<path d="M32.0482 86.8142L56.0322 91.7521L56.59 86.4697L32.1138 86.3221L2.02718 76.6924C1.25615 81.0233 0.796814 85.4526 0.64917 89.9804L32.0482 86.8142Z" fill="white"/>
<path d="M34.6894 74.1677L57.1149 83.9942L58.7554 78.9415L34.837 73.7083L7.40797 58.0088C5.73467 62.11 4.35665 66.3589 3.27393 70.7226L34.6894 74.1677V74.1677Z" fill="white"/>
<path d="M80.4746 32.613L83.1814 56.9415L88.3654 55.8424L80.9504 32.5146L80.8191 0.935059C76.357 1.54204 71.9933 2.47712 67.7444 3.70749L80.4746 32.613V32.613Z" fill="white"/>
<path d="M39.9063 62.3375L59.8055 76.6098L62.4631 72.0165L40.1524 61.9274L16.5785 40.8799C14.0849 44.5546 11.8374 48.4262 9.88525 52.4454L39.9063 62.3375Z" fill="white"/>
<path d="M130.035 83.9766L152.46 74.1501L183.876 70.705C182.793 66.3413 181.415 62.0924 179.742 57.9912L152.313 73.6743L128.394 78.9075L130.035 83.9602V83.9766Z" fill="white"/>
<path d="M146.997 61.9103L124.686 71.9994L127.344 76.5928L147.243 62.3205L177.264 52.4283C175.312 48.3927 173.064 44.5375 170.571 40.8628L146.997 61.9103Z" fill="white"/>
<path d="M129.722 42.8676L113.449 61.1591L117.747 64.2761L130.116 43.1465L153.493 21.9185C150.097 19.0476 146.488 16.4229 142.699 14.0605L129.722 42.8676V42.8676Z" fill="white"/>
<path d="M86.906 0.294706L93.3367 31.2016L90.9252 55.5629H96.2404L93.8289 31.2016L100.26 0.294706C98.045 0.130656 95.8303 0.0322266 93.5828 0.0322266C91.3353 0.0322266 89.1207 0.147061 86.906 0.294706Z" fill="white"/>
<path d="M118.502 36.4508L106.395 57.728L111.251 59.8934L118.961 36.664L137.433 11.0231C133.529 8.92327 129.444 7.10232 125.228 5.57666L118.518 36.4672L118.502 36.4508Z" fill="white"/>
<path d="M106.198 32.497L98.7827 55.8248L103.967 56.924L106.673 32.5954L119.404 3.68992C115.155 2.45955 110.808 1.54087 106.329 0.91748L106.198 32.497V32.497Z" fill="white"/>
<path d="M158.022 26.019L139.353 51.4795L119.634 65.9979L123.178 69.9351L139.664 51.8404L166.946 35.944C164.206 32.4334 161.221 29.1032 158.005 26.019H158.022Z" fill="white"/>
<path d="M118.945 149.416L111.235 126.187L106.379 128.352L118.486 149.63L125.196 180.52C129.412 178.995 133.497 177.174 137.401 175.074L118.929 149.433L118.945 149.416Z" fill="white"/>
<path d="M130.116 142.92L117.747 121.791L113.449 124.907L129.722 143.199L142.699 172.006C146.488 169.644 150.097 167.019 153.493 164.148L130.116 142.92V142.92Z" fill="white"/>
<path d="M147.243 123.742L127.344 109.47L124.686 114.063L146.997 124.152L170.571 145.2C173.064 141.525 175.312 137.653 177.264 133.634L147.243 123.742Z" fill="white"/>
<path d="M166.962 150.138L139.681 134.242L123.194 116.147L119.65 120.084L139.369 134.603L158.038 160.063C161.253 156.979 164.239 153.665 166.978 150.138H166.962Z" fill="white"/>
<path d="M155.035 86.3221L130.559 86.4697L131.117 91.7521L155.101 86.8142L186.5 89.9804C186.352 85.469 185.893 81.0233 185.122 76.6924L155.051 86.3221H155.035Z" fill="white"/>
<path d="M155.101 99.2499L131.117 94.312L130.559 99.5944L155.035 99.742L185.105 109.372C185.876 105.041 186.336 100.612 186.483 96.0837L155.084 99.2499H155.101Z" fill="white"/>
<path d="M152.46 111.914L130.035 102.088L128.394 107.141L152.313 112.374L179.742 128.057C181.415 123.956 182.793 119.707 183.876 115.343L152.46 111.898V111.914Z" fill="white"/>
<path d="M100.26 185.769L93.8289 154.862L96.2404 130.501H90.9252L93.3367 154.862L86.906 185.769C89.1207 185.933 91.3353 186.032 93.5828 186.032C95.8303 186.032 98.045 185.917 100.26 185.769V185.769Z" fill="white"/>
<path d="M106.673 153.466L103.967 129.138L98.7827 130.237L106.198 153.565L106.329 185.144C110.791 184.537 115.155 183.602 119.404 182.372L106.673 153.466V153.466Z" fill="white"/>
<path d="M57.4258 143.199L73.6995 124.907L69.4014 121.791L57.0321 142.92L33.655 164.148C37.0509 167.019 40.6599 169.644 44.4495 172.006L57.4258 143.199V143.199Z" fill="white"/>
<path d="M40.1524 124.168L62.4631 114.079L59.8055 109.485L39.9063 123.758L9.88525 133.65C11.8374 137.685 14.0849 141.541 16.5785 145.215L40.1524 124.168Z" fill="white"/>
<path d="M29.1279 160.047L47.7967 134.587L67.5154 120.069L63.9719 116.131L47.485 134.226L20.22 150.122C22.9596 153.633 25.9453 156.963 29.1607 160.047H29.1279Z" fill="white"/>
<path d="M68.6473 149.63L80.7542 128.352L75.8983 126.187L68.188 149.416L49.7324 175.057C53.6368 177.157 57.7216 178.978 61.9377 180.504L68.6473 149.613V149.63Z" fill="white"/>
<path d="M34.837 112.374L58.7554 107.141L57.1149 102.088L34.6894 111.914L3.27393 115.359C4.35665 119.723 5.73467 123.972 7.40797 128.073L34.837 112.39V112.374Z" fill="white"/>
<path d="M80.9679 153.565L88.383 130.237L83.199 129.138L80.4922 153.466L67.762 182.372C72.0108 183.602 76.3582 184.521 80.8367 185.144L80.9679 153.565V153.565Z" fill="white"/>
</svg>
